<?xml version="1.0" encoding="utf-8"?>
<svg viewBox="0 0 167.3 44" width="167.3" height="44" xmlns="http://www.w3.org/2000/svg">
  <defs>
    <style>
      .cls-1 {
        fill: #fff;
        font-family: FranklinGothic-Heavy, 'Franklin Gothic Heavy';
        font-size: 27px;
        font-weight: 800;
      }

      .cls-2 {
        letter-spacing: 0em;
      }

      .cls-3 {
        fill: #e2d703;
        fill-rule: evenodd;
      }

      .cls-4 {
        letter-spacing: 0em;
      }

      .cls-5 {
        fill: none;
        stroke: #e2d703;
        stroke-linecap: round;
        stroke-linejoin: round;
        stroke-width: 3px;
      }
    </style>
  </defs>
  <path class="cls-3" d="m44,22c0,12.15-9.85,22-22,22S0,34.15,0,22,9.85,0,22,0s22,9.85,22,22Zm-28-4c0,2.76-2.24,5-5,5s-5-2.24-5-5,2.24-5,5-5,5,2.24,5,5Zm-1,18c2.76,0,5-2.24,5-5s-2.24-5-5-5-5,2.24-5,5,2.24,5,5,5Zm19-5c0,2.76-2.24,5-5,5s-5-2.24-5-5,2.24-5,5-5,5,2.24,5,5Zm-1-8c2.76,0,5-2.24,5-5s-2.24-5-5-5-5,2.24-5,5,2.24,5,5,5Zm-6-13c0,2.76-2.24,5-5,5s-5-2.24-5-5,2.24-5,5-5,5,2.24,5,5Zm-5,14c1.1,0,2-.9,2-2s-.9-2-2-2-2,.9-2,2,.9,2,2,2Z" transform="matrix(1, 0, 0, 1, 0, 8.881784197001252e-16)"/>
  <path class="cls-5" d="m33.5,38.5c2-1.33,9.5-3.5,16,1.5" transform="matrix(1, 0, 0, 1, 0, 8.881784197001252e-16)"/>
  <text class="cls-1" transform="matrix(1, 0, 0, 1, 54.04999923706056, 31.000000000000007)" style="white-space: pre;"><tspan x="0" y="0">Cine</tspan><tspan class="cls-2" x="56.69" y="0">K</tspan><tspan class="cls-4" x="74.66" y="0">Tic</tspan></text>
</svg>